<?xml version="1.0" encoding="utf-8"?>
<!-- Generator: Adobe Illustrator 16.0.4, SVG Export Plug-In . SVG Version: 6.00 Build 0)  -->
<!DOCTYPE svg PUBLIC "-//W3C//DTD SVG 1.1//EN" "http://www.w3.org/Graphics/SVG/1.1/DTD/svg11.dtd">
<svg version="1.1" id="Ebene_1" xmlns="http://www.w3.org/2000/svg" xmlns:xlink="http://www.w3.org/1999/xlink" x="0px" y="0px"
	 width="468px" height="504.5127px" viewBox="0 0 468 504.5127" enable-background="new 0 0 468 504.5127" xml:space="preserve">
<g>
	<path fill="#FFFFFF" stroke="#000000" stroke-width="20" stroke-miterlimit="10" d="M383.81055,117.69531"/>
</g>
<g>
	<g>
		<path fill="#FFFFFF" d="M383.81055,117.69531"/>
		<path fill="#FFFFFF" d="M448,270.5127"/>
	</g>
	<path fill="#FFFFFF" d="M428,270.5127c0,106.97168-87.02832,194-194,194c-106.97217,0-194-87.02832-194-194
		c0-106.97217,87.02783-194,194-194c28.2998,0,55.71582,6.05225,80.74805,17.52002l-38.33887,60.0542l145.14355-15.78613
		L374.77832,0l-38.32715,60.03564C304.91113,44.65381,270.0498,36.5127,234,36.5127
		c-62.50391,0-121.26611,24.34033-165.46289,68.53711S0,208.00879,0,270.5127s24.34033,121.26562,68.53711,165.46289
		S171.49658,504.5127,234,504.5127c62.50293,0,121.26562-24.33984,165.46289-68.53711S468,333.01562,468,270.5127H428z"/>
</g>
</svg>
